<mxfile host="app.diagrams.net" modified="2020-07-22T00:17:51.286Z" agent="5.0 (Windows NT 10.0; Win64; x64) AppleWebKit/537.36 (KHTML, like Gecko) Chrome/84.0.4147.89 Safari/537.36" etag="djW3AFLCB-PKEQo3lADP" version="13.4.5" type="github">
  <diagram id="WPCcrKsxqY3Iwe3NZDdh" name="Overview">
    <mxGraphModel dx="2070" dy="1116" grid="1" gridSize="10" guides="1" tooltips="1" connect="1" arrows="1" fold="1" page="1" pageScale="1" pageWidth="850" pageHeight="1100" math="0" shadow="0">
      <root>
        <mxCell id="0" />
        <mxCell id="1" parent="0" />
        <mxCell id="ZGGwGODahF7G16Aar3FH-1" style="edgeStyle=none;rounded=0;orthogonalLoop=1;jettySize=auto;html=1;fontSize=17;fontColor=#3399FF;" edge="1" parent="1" source="ZGGwGODahF7G16Aar3FH-3" target="ZGGwGODahF7G16Aar3FH-6">
          <mxGeometry relative="1" as="geometry" />
        </mxCell>
        <mxCell id="ZGGwGODahF7G16Aar3FH-2" style="edgeStyle=none;rounded=0;orthogonalLoop=1;jettySize=auto;html=1;fontSize=17;fontColor=#3399FF;" edge="1" parent="1" source="ZGGwGODahF7G16Aar3FH-3" target="ZGGwGODahF7G16Aar3FH-4">
          <mxGeometry relative="1" as="geometry" />
        </mxCell>
        <mxCell id="ZGGwGODahF7G16Aar3FH-3" value="UI" style="rounded=0;whiteSpace=wrap;html=1;" vertex="1" parent="1">
          <mxGeometry x="-130" y="440" width="60" height="50" as="geometry" />
        </mxCell>
        <mxCell id="ZGGwGODahF7G16Aar3FH-4" value="Content" style="rounded=0;whiteSpace=wrap;html=1;" vertex="1" parent="1">
          <mxGeometry x="160" y="440" width="60" height="50" as="geometry" />
        </mxCell>
        <mxCell id="ZGGwGODahF7G16Aar3FH-5" style="edgeStyle=none;rounded=0;orthogonalLoop=1;jettySize=auto;html=1;fontSize=17;fontColor=#3399FF;" edge="1" parent="1" source="ZGGwGODahF7G16Aar3FH-6" target="ZGGwGODahF7G16Aar3FH-8">
          <mxGeometry relative="1" as="geometry" />
        </mxCell>
        <mxCell id="ZGGwGODahF7G16Aar3FH-6" value="API" style="rounded=0;whiteSpace=wrap;html=1;" vertex="1" parent="1">
          <mxGeometry x="160" y="510" width="60" height="50" as="geometry" />
        </mxCell>
        <mxCell id="ZGGwGODahF7G16Aar3FH-7" style="edgeStyle=none;rounded=0;orthogonalLoop=1;jettySize=auto;html=1;fontSize=17;fontColor=#3399FF;" edge="1" parent="1" source="ZGGwGODahF7G16Aar3FH-8" target="ZGGwGODahF7G16Aar3FH-9">
          <mxGeometry relative="1" as="geometry" />
        </mxCell>
        <mxCell id="ZGGwGODahF7G16Aar3FH-8" value="API" style="rounded=0;whiteSpace=wrap;html=1;" vertex="1" parent="1">
          <mxGeometry x="410" y="440" width="60" height="50" as="geometry" />
        </mxCell>
        <mxCell id="ZGGwGODahF7G16Aar3FH-9" value="API" style="rounded=0;whiteSpace=wrap;html=1;" vertex="1" parent="1">
          <mxGeometry x="680" y="440" width="60" height="50" as="geometry" />
        </mxCell>
        <mxCell id="ZGGwGODahF7G16Aar3FH-10" value="Service" style="text;html=1;strokeColor=none;fillColor=none;align=center;verticalAlign=middle;whiteSpace=wrap;rounded=0;" vertex="1" parent="1">
          <mxGeometry x="-440" y="435" width="240" height="60" as="geometry" />
        </mxCell>
        <mxCell id="ZGGwGODahF7G16Aar3FH-11" value="Application" style="text;html=1;strokeColor=none;fillColor=none;align=center;verticalAlign=middle;whiteSpace=wrap;rounded=0;" vertex="1" parent="1">
          <mxGeometry x="-440" y="600" width="240" height="60" as="geometry" />
        </mxCell>
        <mxCell id="ZGGwGODahF7G16Aar3FH-12" value="Deployment" style="text;html=1;strokeColor=none;fillColor=none;align=center;verticalAlign=middle;whiteSpace=wrap;rounded=0;" vertex="1" parent="1">
          <mxGeometry x="-440" y="800" width="240" height="60" as="geometry" />
        </mxCell>
        <mxCell id="ZGGwGODahF7G16Aar3FH-13" value="Data" style="text;html=1;strokeColor=none;fillColor=none;align=center;verticalAlign=middle;whiteSpace=wrap;rounded=0;" vertex="1" parent="1">
          <mxGeometry x="-440" y="690" width="240" height="60" as="geometry" />
        </mxCell>
        <mxCell id="ZGGwGODahF7G16Aar3FH-14" value="Infrastructure" style="text;html=1;strokeColor=none;fillColor=none;align=center;verticalAlign=middle;whiteSpace=wrap;rounded=0;" vertex="1" parent="1">
          <mxGeometry x="-440" y="910" width="240" height="60" as="geometry" />
        </mxCell>
        <mxCell id="ZGGwGODahF7G16Aar3FH-15" style="edgeStyle=none;rounded=0;orthogonalLoop=1;jettySize=auto;html=1;fontSize=17;fontColor=#3399FF;" edge="1" parent="1" source="ZGGwGODahF7G16Aar3FH-16" target="ZGGwGODahF7G16Aar3FH-22">
          <mxGeometry relative="1" as="geometry" />
        </mxCell>
        <mxCell id="ZGGwGODahF7G16Aar3FH-16" value="Input&lt;br&gt;End Point" style="rounded=0;whiteSpace=wrap;html=1;" vertex="1" parent="1">
          <mxGeometry x="110" y="615" width="60" height="50" as="geometry" />
        </mxCell>
        <mxCell id="ZGGwGODahF7G16Aar3FH-17" style="edgeStyle=none;rounded=0;orthogonalLoop=1;jettySize=auto;html=1;fontSize=17;fontColor=#3399FF;" edge="1" parent="1" source="ZGGwGODahF7G16Aar3FH-18" target="ZGGwGODahF7G16Aar3FH-25">
          <mxGeometry relative="1" as="geometry" />
        </mxCell>
        <mxCell id="ZGGwGODahF7G16Aar3FH-18" value="Module" style="rounded=0;whiteSpace=wrap;html=1;" vertex="1" parent="1">
          <mxGeometry x="180" y="615" width="60" height="50" as="geometry" />
        </mxCell>
        <mxCell id="ZGGwGODahF7G16Aar3FH-19" style="edgeStyle=none;rounded=0;orthogonalLoop=1;jettySize=auto;html=1;fontSize=17;fontColor=#3399FF;" edge="1" parent="1" source="ZGGwGODahF7G16Aar3FH-21" target="ZGGwGODahF7G16Aar3FH-24">
          <mxGeometry relative="1" as="geometry" />
        </mxCell>
        <mxCell id="ZGGwGODahF7G16Aar3FH-20" style="edgeStyle=none;rounded=0;orthogonalLoop=1;jettySize=auto;html=1;fontSize=17;fontColor=#3399FF;" edge="1" parent="1" source="ZGGwGODahF7G16Aar3FH-21" target="ZGGwGODahF7G16Aar3FH-30">
          <mxGeometry relative="1" as="geometry" />
        </mxCell>
        <mxCell id="ZGGwGODahF7G16Aar3FH-21" value="Ouput&lt;br&gt;End Point" style="rounded=0;whiteSpace=wrap;html=1;" vertex="1" parent="1">
          <mxGeometry x="250" y="615" width="60" height="50" as="geometry" />
        </mxCell>
        <mxCell id="ZGGwGODahF7G16Aar3FH-22" value="Input Data" style="rounded=0;whiteSpace=wrap;html=1;" vertex="1" parent="1">
          <mxGeometry x="110" y="700" width="60" height="50" as="geometry" />
        </mxCell>
        <mxCell id="ZGGwGODahF7G16Aar3FH-23" style="edgeStyle=none;rounded=0;orthogonalLoop=1;jettySize=auto;html=1;fontSize=17;fontColor=#3399FF;" edge="1" parent="1" source="ZGGwGODahF7G16Aar3FH-24" target="ZGGwGODahF7G16Aar3FH-36">
          <mxGeometry relative="1" as="geometry" />
        </mxCell>
        <mxCell id="ZGGwGODahF7G16Aar3FH-24" value="Output Data" style="rounded=0;whiteSpace=wrap;html=1;" vertex="1" parent="1">
          <mxGeometry x="250" y="700" width="60" height="50" as="geometry" />
        </mxCell>
        <mxCell id="ZGGwGODahF7G16Aar3FH-25" value="Business Logic" style="rounded=0;html=1;whiteSpace=wrap;" vertex="1" parent="1">
          <mxGeometry x="180" y="700" width="60" height="50" as="geometry" />
        </mxCell>
        <mxCell id="ZGGwGODahF7G16Aar3FH-26" style="edgeStyle=none;rounded=0;orthogonalLoop=1;jettySize=auto;html=1;fontSize=17;fontColor=#3399FF;" edge="1" parent="1" source="ZGGwGODahF7G16Aar3FH-27" target="ZGGwGODahF7G16Aar3FH-53">
          <mxGeometry relative="1" as="geometry" />
        </mxCell>
        <mxCell id="ZGGwGODahF7G16Aar3FH-27" value="Service" style="rounded=0;html=1;whiteSpace=wrap;" vertex="1" parent="1">
          <mxGeometry x="170" y="820" width="60" height="50" as="geometry" />
        </mxCell>
        <mxCell id="ZGGwGODahF7G16Aar3FH-28" style="edgeStyle=none;rounded=0;orthogonalLoop=1;jettySize=auto;html=1;fontSize=17;fontColor=#3399FF;" edge="1" parent="1" source="ZGGwGODahF7G16Aar3FH-29" target="ZGGwGODahF7G16Aar3FH-56">
          <mxGeometry relative="1" as="geometry" />
        </mxCell>
        <mxCell id="ZGGwGODahF7G16Aar3FH-29" value="Service" style="rounded=0;html=1;whiteSpace=wrap;" vertex="1" parent="1">
          <mxGeometry x="170" y="920" width="60" height="50" as="geometry" />
        </mxCell>
        <mxCell id="ZGGwGODahF7G16Aar3FH-30" value="Input&lt;br&gt;End Point" style="rounded=0;whiteSpace=wrap;html=1;" vertex="1" parent="1">
          <mxGeometry x="370" y="615" width="60" height="50" as="geometry" />
        </mxCell>
        <mxCell id="ZGGwGODahF7G16Aar3FH-31" value="Module" style="rounded=0;whiteSpace=wrap;html=1;" vertex="1" parent="1">
          <mxGeometry x="440" y="615" width="60" height="50" as="geometry" />
        </mxCell>
        <mxCell id="ZGGwGODahF7G16Aar3FH-32" style="edgeStyle=none;rounded=0;orthogonalLoop=1;jettySize=auto;html=1;fontSize=17;fontColor=#3399FF;" edge="1" parent="1" source="ZGGwGODahF7G16Aar3FH-33" target="ZGGwGODahF7G16Aar3FH-35">
          <mxGeometry relative="1" as="geometry" />
        </mxCell>
        <mxCell id="ZGGwGODahF7G16Aar3FH-33" value="Ouput&lt;br&gt;End Point" style="rounded=0;whiteSpace=wrap;html=1;" vertex="1" parent="1">
          <mxGeometry x="510" y="615" width="60" height="50" as="geometry" />
        </mxCell>
        <mxCell id="ZGGwGODahF7G16Aar3FH-34" style="edgeStyle=none;rounded=0;orthogonalLoop=1;jettySize=auto;html=1;fontSize=17;fontColor=#3399FF;" edge="1" parent="1" source="ZGGwGODahF7G16Aar3FH-35" target="ZGGwGODahF7G16Aar3FH-40">
          <mxGeometry relative="1" as="geometry" />
        </mxCell>
        <mxCell id="ZGGwGODahF7G16Aar3FH-35" value="Input&lt;br&gt;End Point" style="rounded=0;whiteSpace=wrap;html=1;" vertex="1" parent="1">
          <mxGeometry x="680" y="615" width="60" height="50" as="geometry" />
        </mxCell>
        <mxCell id="ZGGwGODahF7G16Aar3FH-36" value="Input Data" style="rounded=0;whiteSpace=wrap;html=1;" vertex="1" parent="1">
          <mxGeometry x="370" y="700" width="60" height="50" as="geometry" />
        </mxCell>
        <mxCell id="ZGGwGODahF7G16Aar3FH-37" style="edgeStyle=none;rounded=0;orthogonalLoop=1;jettySize=auto;html=1;fontSize=17;fontColor=#3399FF;" edge="1" parent="1" source="ZGGwGODahF7G16Aar3FH-38" target="ZGGwGODahF7G16Aar3FH-40">
          <mxGeometry relative="1" as="geometry" />
        </mxCell>
        <mxCell id="ZGGwGODahF7G16Aar3FH-38" value="Output Data" style="rounded=0;whiteSpace=wrap;html=1;" vertex="1" parent="1">
          <mxGeometry x="510" y="700" width="60" height="50" as="geometry" />
        </mxCell>
        <mxCell id="ZGGwGODahF7G16Aar3FH-39" value="Business Logic" style="rounded=0;html=1;whiteSpace=wrap;" vertex="1" parent="1">
          <mxGeometry x="440" y="700" width="60" height="50" as="geometry" />
        </mxCell>
        <mxCell id="ZGGwGODahF7G16Aar3FH-40" value="Input Data" style="rounded=0;whiteSpace=wrap;html=1;" vertex="1" parent="1">
          <mxGeometry x="680" y="700" width="60" height="50" as="geometry" />
        </mxCell>
        <mxCell id="ZGGwGODahF7G16Aar3FH-41" style="edgeStyle=none;rounded=0;orthogonalLoop=1;jettySize=auto;html=1;fontSize=17;fontColor=#3399FF;" edge="1" parent="1" source="ZGGwGODahF7G16Aar3FH-42" target="ZGGwGODahF7G16Aar3FH-48">
          <mxGeometry relative="1" as="geometry" />
        </mxCell>
        <mxCell id="ZGGwGODahF7G16Aar3FH-42" value="Input&lt;br&gt;End Point" style="rounded=0;whiteSpace=wrap;html=1;" vertex="1" parent="1">
          <mxGeometry x="-160" y="615" width="60" height="50" as="geometry" />
        </mxCell>
        <mxCell id="ZGGwGODahF7G16Aar3FH-43" style="edgeStyle=none;rounded=0;orthogonalLoop=1;jettySize=auto;html=1;fontSize=17;fontColor=#3399FF;" edge="1" parent="1" source="ZGGwGODahF7G16Aar3FH-44" target="ZGGwGODahF7G16Aar3FH-51">
          <mxGeometry relative="1" as="geometry" />
        </mxCell>
        <mxCell id="ZGGwGODahF7G16Aar3FH-44" value="Module" style="rounded=0;whiteSpace=wrap;html=1;" vertex="1" parent="1">
          <mxGeometry x="-90" y="615" width="60" height="50" as="geometry" />
        </mxCell>
        <mxCell id="ZGGwGODahF7G16Aar3FH-45" style="edgeStyle=none;rounded=0;orthogonalLoop=1;jettySize=auto;html=1;fontSize=17;fontColor=#3399FF;" edge="1" parent="1" source="ZGGwGODahF7G16Aar3FH-47" target="ZGGwGODahF7G16Aar3FH-50">
          <mxGeometry relative="1" as="geometry" />
        </mxCell>
        <mxCell id="ZGGwGODahF7G16Aar3FH-46" style="edgeStyle=none;rounded=0;orthogonalLoop=1;jettySize=auto;html=1;fontSize=17;fontColor=#3399FF;" edge="1" parent="1" source="ZGGwGODahF7G16Aar3FH-47" target="ZGGwGODahF7G16Aar3FH-16">
          <mxGeometry relative="1" as="geometry" />
        </mxCell>
        <mxCell id="ZGGwGODahF7G16Aar3FH-47" value="Ouput&lt;br&gt;End Point" style="rounded=0;whiteSpace=wrap;html=1;" vertex="1" parent="1">
          <mxGeometry x="-20" y="615" width="60" height="50" as="geometry" />
        </mxCell>
        <mxCell id="ZGGwGODahF7G16Aar3FH-48" value="Input Data" style="rounded=0;whiteSpace=wrap;html=1;" vertex="1" parent="1">
          <mxGeometry x="-160" y="700" width="60" height="50" as="geometry" />
        </mxCell>
        <mxCell id="ZGGwGODahF7G16Aar3FH-49" style="edgeStyle=none;rounded=0;orthogonalLoop=1;jettySize=auto;html=1;fontSize=17;fontColor=#3399FF;" edge="1" parent="1" source="ZGGwGODahF7G16Aar3FH-50" target="ZGGwGODahF7G16Aar3FH-22">
          <mxGeometry relative="1" as="geometry" />
        </mxCell>
        <mxCell id="ZGGwGODahF7G16Aar3FH-50" value="Output Data" style="rounded=0;whiteSpace=wrap;html=1;" vertex="1" parent="1">
          <mxGeometry x="-20" y="700" width="60" height="50" as="geometry" />
        </mxCell>
        <mxCell id="ZGGwGODahF7G16Aar3FH-51" value="Business Logic" style="rounded=0;html=1;whiteSpace=wrap;" vertex="1" parent="1">
          <mxGeometry x="-90" y="700" width="60" height="50" as="geometry" />
        </mxCell>
        <mxCell id="ZGGwGODahF7G16Aar3FH-52" style="edgeStyle=none;rounded=0;orthogonalLoop=1;jettySize=auto;html=1;fontSize=17;fontColor=#3399FF;" edge="1" parent="1" source="ZGGwGODahF7G16Aar3FH-53" target="ZGGwGODahF7G16Aar3FH-54">
          <mxGeometry relative="1" as="geometry" />
        </mxCell>
        <mxCell id="ZGGwGODahF7G16Aar3FH-53" value="Service" style="rounded=0;html=1;whiteSpace=wrap;" vertex="1" parent="1">
          <mxGeometry x="400" y="820" width="60" height="50" as="geometry" />
        </mxCell>
        <mxCell id="ZGGwGODahF7G16Aar3FH-54" value="Service" style="rounded=0;html=1;whiteSpace=wrap;" vertex="1" parent="1">
          <mxGeometry x="680" y="820" width="60" height="50" as="geometry" />
        </mxCell>
        <mxCell id="ZGGwGODahF7G16Aar3FH-55" style="edgeStyle=none;rounded=0;orthogonalLoop=1;jettySize=auto;html=1;fontSize=17;fontColor=#3399FF;" edge="1" parent="1" source="ZGGwGODahF7G16Aar3FH-56" target="ZGGwGODahF7G16Aar3FH-57">
          <mxGeometry relative="1" as="geometry" />
        </mxCell>
        <mxCell id="ZGGwGODahF7G16Aar3FH-56" value="Service" style="rounded=0;html=1;whiteSpace=wrap;" vertex="1" parent="1">
          <mxGeometry x="400" y="920" width="60" height="50" as="geometry" />
        </mxCell>
        <mxCell id="ZGGwGODahF7G16Aar3FH-57" value="Service" style="rounded=0;html=1;whiteSpace=wrap;" vertex="1" parent="1">
          <mxGeometry x="680" y="920" width="60" height="50" as="geometry" />
        </mxCell>
        <mxCell id="ZGGwGODahF7G16Aar3FH-58" value="Type, Protocol,&lt;br&gt;Data" style="text;html=1;strokeColor=none;fillColor=none;align=center;verticalAlign=middle;whiteSpace=wrap;rounded=0;fontSize=17;fontColor=#3399FF;" vertex="1" parent="1">
          <mxGeometry x="30" y="560" width="90" height="50" as="geometry" />
        </mxCell>
        <mxCell id="ZGGwGODahF7G16Aar3FH-59" value="Type, Protocol,&lt;br&gt;Data" style="text;html=1;strokeColor=none;fillColor=none;align=center;verticalAlign=middle;whiteSpace=wrap;rounded=0;fontSize=17;fontColor=#3399FF;" vertex="1" parent="1">
          <mxGeometry x="280" y="540" width="110" height="60" as="geometry" />
        </mxCell>
        <mxCell id="ZGGwGODahF7G16Aar3FH-60" value="Mapping" style="text;html=1;strokeColor=none;fillColor=none;align=center;verticalAlign=middle;whiteSpace=wrap;rounded=0;fontSize=17;fontColor=#3399FF;" vertex="1" parent="1">
          <mxGeometry x="25" y="760" width="90" height="50" as="geometry" />
        </mxCell>
        <mxCell id="ZGGwGODahF7G16Aar3FH-61" value="BPMN" style="text;html=1;strokeColor=none;fillColor=none;align=center;verticalAlign=middle;whiteSpace=wrap;rounded=0;fontSize=17;fontColor=#3399FF;" vertex="1" parent="1">
          <mxGeometry x="166" y="763" width="88" height="47" as="geometry" />
        </mxCell>
        <mxCell id="ZGGwGODahF7G16Aar3FH-62" value="Type, Protocol,&lt;br&gt;Data" style="text;html=1;strokeColor=none;fillColor=none;align=center;verticalAlign=middle;whiteSpace=wrap;rounded=0;fontSize=17;fontColor=#3399FF;" vertex="1" parent="1">
          <mxGeometry x="570" y="540" width="100" height="60" as="geometry" />
        </mxCell>
        <mxCell id="ZGGwGODahF7G16Aar3FH-63" value="BPMN" style="text;html=1;strokeColor=none;fillColor=none;align=center;verticalAlign=middle;whiteSpace=wrap;rounded=0;fontSize=17;fontColor=#3399FF;" vertex="1" parent="1">
          <mxGeometry x="430" y="760" width="88" height="47" as="geometry" />
        </mxCell>
        <mxCell id="ZGGwGODahF7G16Aar3FH-126" value="BPMN" style="text;html=1;strokeColor=none;fillColor=none;align=center;verticalAlign=middle;whiteSpace=wrap;rounded=0;fontSize=17;fontColor=#3399FF;" vertex="1" parent="1">
          <mxGeometry x="-104" y="763" width="88" height="47" as="geometry" />
        </mxCell>
        <mxCell id="ZGGwGODahF7G16Aar3FH-127" value="Mapping" style="text;html=1;strokeColor=none;fillColor=none;align=center;verticalAlign=middle;whiteSpace=wrap;rounded=0;fontSize=17;fontColor=#3399FF;" vertex="1" parent="1">
          <mxGeometry x="300" y="757" width="90" height="50" as="geometry" />
        </mxCell>
        <mxCell id="ZGGwGODahF7G16Aar3FH-128" value="Mapping" style="text;html=1;strokeColor=none;fillColor=none;align=center;verticalAlign=middle;whiteSpace=wrap;rounded=0;fontSize=17;fontColor=#3399FF;" vertex="1" parent="1">
          <mxGeometry x="580" y="757" width="90" height="50" as="geometry" />
        </mxCell>
      </root>
    </mxGraphModel>
  </diagram>
</mxfile>
